<?xml version="1.0" encoding="UTF-8" standalone="no"?>
<svg
   viewBox="0 0 512 512"
   version="1.1"
   xmlns="http://www.w3.org/2000/svg"
   xmlns:svg="http://www.w3.org/2000/svg">
<style>
  #logo {
    fill: black;
  }
  #background {
    fill: white;
  }
  @media (prefers-color-scheme: dark) {
    #logo {
      fill: white;
    }
    #background {
      fill: black;
    }
  }
</style>
  <path
     id="logo"
     width="512"
     height="512"
     x="-13.113472"
     y="12.233685"
     d="M -13.113472,12.233685 H 498.88653 V 524.23368 H -13.113472 Z"
     transform="translate(13.113472,-12.233685)" />
  <path
     id="background"
     d="m 147.1557,52.648154 -17.77033,2.31808 -0.94584,4.848761 c -1.056,5.4208 -2.44712,6.883936 -2.49806,6.919208 -0.051,0.03527 -0.76417,0.376546 -4.07205,-0.345477 -6.61574,-1.444047 -19.25102,-6.677615 -36.621791,-6.677616 -45.05917,1e-6 -77.8942452,31.907163 -77.8942452,71.17314 0,25.23346 9.9165212,43.76203 24.3199062,56.71746 14.403386,12.95543 32.867355,20.75644 50.783946,27.17553 17.916594,6.4191 35.438954,11.50627 47.695184,17.78725 6.12813,3.14048 10.85211,6.54242 13.84325,10.13722 2.99115,3.59479 4.47913,7.22035 4.47913,12.34295 0,7.45106 -3.92723,14.28109 -11.25459,19.68375 -7.32363,5.39992 -17.95031,8.97636 -29.87412,8.97999 -43.936066,-0.31259 -70.167935,-26.06217 -87.799534,-67.20257 l -2.226275,-5.20148 -20.2828959,4.41027 28.7241369,88.78402 18.76932,-2.44733 0.207769,-5.80184 c 0.03568,-0.99906 0.131319,-1.18975 0.219849,-1.69236 0.672357,0.16028 2.003937,0.43383 4.700182,1.59935 3.26455,1.41118 7.540338,3.46511 12.688437,5.55783 10.296198,4.18545 24.193171,8.50406 41.782211,8.50406 56.03767,0 86.8537,-37.11762 86.8537,-74.37304 0,-24.42006 -10.04502,-42.14013 -24.49023,-54.29791 -14.44521,-12.15777 -32.85443,-19.29399 -50.69818,-25.42398 -17.843744,-6.13 -35.246516,-11.29875 -47.385946,-18.10253 -12.13943,-6.80376 -18.547055,-13.78625 -18.547055,-26.33478 0,-7.73417 2.913036,-13.626758 8.285414,-18.088032 5.37238,-4.461273 13.505151,-7.379442 23.901952,-7.379442 33.450665,0 60.233615,18.961424 74.855015,58.256404 l 2.07286,5.56991 20.74434,-4.50932 z"
     transform="matrix(1.6168757,0,0,1.6168757,102.38393,-37.891146)" />
</svg>
