<?xml version="1.0" encoding="UTF-8" standalone="no"?>
<svg
   viewBox="0 0 512 512"
   version="1.1"
   xmlns="http://www.w3.org/2000/svg"
   xmlns:svg="http://www.w3.org/2000/svg">
<style>
  #logo {
    fill: black;
  }
  @media (prefers-color-scheme: dark) {
    #logo {
      fill: white;
    }
  }
</style>
   <path
      id="logo"
      d="M 114.88653,12.233685 A 128,128 0 0 0 -13.113472,140.23369 V 396.23368 A 128,128 0 0 0 114.88653,524.23369 h 256 a 128,128 0 0 0 128,-128.00001 V 140.23369 a 128,128 0 0 0 -128,-128.000005 z M 35.870903,93.835247 H 171.87481 c 51.25389,1e-6 101.87506,32.844023 125.80859,93.843753 12.66985,-8.34271 27.95797,-13.19922 45.11914,-13.19922 17.36274,0 30.04637,5.47698 36.56055,6.96289 2.22968,0.5086 3.25739,0.40852 3.57227,0.40039 0.17802,-0.36136 0.6619,-1.46667 1.26171,-4.68359 l 1.39258,-7.45313 19.70117,-2.6914 34.72852,103.48437 -24.49219,5.55859 -2.74609,-7.70898 c -14.06275,-39.48602 -39.94424,-58.91016 -73.16797,-58.91016 -10.30887,0 -18.37274,3.12957 -23.32031,7.42188 -4.86291,4.21884 -6.90509,8.82724 -6.97461,15.0957 0.32805,2.20328 0.62274,4.43512 0.89062,6.68555 2.20467,7.65975 9.67755,14.60337 22.33008,20.74609 12.83687,6.23224 29.74463,11.27177 46.64258,17.59766 16.89795,6.32587 33.90938,13.87793 47.44336,26.75 13.534,12.87207 23.27734,32.28638 23.27734,57.78711 0,41.94596 -32.33494,81.10937 -88.28711,81.10937 -17.5698,0 -31.48413,-4.51315 -41.79492,-8.89258 -8.93266,-3.79409 -14.02581,-5.97784 -15.72265,-6.72461 l -0.23633,6.89649 -21.18164,2.87891 -12.77735,-41.25196 c -26.39438,30.90195 -61.96961,47.09375 -98.02734,47.09375 H 35.870903 V 411.6497 h 8.572266 c -0.994453,0 0.356492,-0.0831 1.738281,-0.8418 1.38179,-0.7587 3.107092,-2.01946 4.630859,-3.59765 3.047531,-3.1564 5.066406,-6.86084 5.066406,-11.84961 V 141.10283 c 0,-4.9888 -2.018875,-8.69714 -5.066406,-11.85352 -1.523767,-1.57821 -3.24907,-2.837 -4.630859,-3.5957 -1.381789,-0.75874 -2.732734,-0.83985 -1.738281,-0.83985 H 35.870903 V 104.6497 Z m 92.720707,40.330083 v 268.13671 h 43.2832 c 17.28069,0 32.24621,-9.0018 43.95312,-30.14062 11.70693,-21.13881 19.70899,-55.16299 19.70899,-103.92969 1e-5,-48.76674 -8.00217,-82.79203 -19.70899,-103.92969 -11.70681,-21.13762 -26.67219,-30.13671 -43.95312,-30.13671 z m 176.17968,192.55664 c -3.45722,13.32537 -8.13428,25.54972 -13.74023,36.72461 16.75836,27.35941 39.39693,43.96419 73.79687,44.21875 11.8259,-0.005 22.37361,-3.78088 29.34766,-9.15235 6.97865,-5.37501 9.88281,-11.3792 9.88281,-17 0,-5.76163 -1.91673,-9.25225 -7.96093,-14.1289 -6.0442,-4.87666 -15.78241,-9.40497 -27.11719,-13.66993 -19.49616,-7.33585 -43.58054,-14.04033 -64.20899,-26.99218 z"
      transform="translate(13.113472,-12.233685)" />
</svg>
