<?xml version="1.0" encoding="UTF-8" standalone="no"?>
<!-- Created with Inkscape (http://www.inkscape.org/) -->

<svg
   width="512"
   height="512"
   viewBox="0 0 512 512"
   version="1.1"
   id="svg5"
   xmlns="http://www.w3.org/2000/svg"
   xmlns:svg="http://www.w3.org/2000/svg">
  <defs
     id="defs2">
    <rect
       x="53.783836"
       y="79.333984"
       width="378.57837"
       height="362.29016"
       id="rect63" />
  </defs>
  <g
     id="layer1">
    <path
       id="rect701"
       style="font-size:213.333px;font-family:Sovana;-inkscape-font-specification:Sovana;white-space:pre;shape-inside:url(#rect63);display:inline;fill:#000000"
       d="M 114.88653,12.233685 A 128,128 0 0 0 -13.113472,140.23368 v 256 a 128,128 0 0 0 128.000002,128 h 256 a 128,128 0 0 0 128,-128 v -256 a 128,128 0 0 0 -128,-127.999995 z M 71.677544,124.31376 H 183.9002 c 42.57492,0 84.56444,27.44616 104.16211,78.34766 10.53634,-7.14794 23.34934,-11.35938 37.82031,-11.35938 14.29854,0 24.70848,4.50471 30.23633,5.76563 2.76394,0.63046 3.64491,0.21772 3.50586,0.31836 -0.13904,0.10056 0.57033,-0.28277 1.37305,-4.58789 l 1.03125,-5.54102 15.28711,-2.08594 28.26758,84.22657 -18.84766,4.27539 -2.04297,-5.73243 c -11.78974,-33.10378 -33.61647,-49.49023 -61.45898,-49.49023 -8.67918,0 -15.52212,2.62709 -19.79493,6.33398 -4.21285,3.6549 -6.07307,7.81103 -6.125,13.34961 0.28588,1.91002 0.54043,3.84366 0.77149,5.79688 1.93527,6.79833 8.39849,12.68705 19.00391,17.83594 10.739,5.21372 24.78688,9.40052 38.79492,14.64453 14.00805,5.24402 28.06724,11.49921 39.17578,22.06445 11.10854,10.56524 19.03516,26.34573 19.03516,47.24805 0,34.23456 -26.3727,66.42968 -72.58594,66.42968 -14.49422,0 -25.95796,-3.7169 -34.47852,-7.33593 -7.79193,-3.30957 -12.77794,-5.5093 -14.0039,-5.94532 l -0.20899,6.13086 -16.39062,2.22852 -10.82422,-34.95313 c -21.8539,26.12189 -51.55515,39.875 -81.70313,39.875 H 71.677544 v -23.8457 h 6.371094 c -0.634157,0 0.531586,-0.11263 1.742187,-0.77734 1.210603,-0.66471 2.696745,-1.75295 4.021485,-3.125 2.649478,-2.74412 4.482422,-6.09057 4.482422,-10.57422 V 162.63212 c 0,-4.48364 -1.832944,-7.8301 -4.482422,-10.57422 -1.32474,-1.37205 -2.810882,-2.46029 -4.021485,-3.125 -1.210601,-0.66465 -2.376344,-0.77734 -1.742187,-0.77734 h -6.371094 v -15.80274 z m 75.519536,31.60742 v 224.625 h 36.70312 c 14.57586,0 27.27859,-7.66402 37.125,-25.44336 9.8464,-17.77933 16.50586,-46.23378 16.50586,-86.87109 0,-40.63733 -6.65953,-69.0888 -16.50586,-86.86719 -9.84633,-17.77837 -22.54895,-25.44336 -37.125,-25.44336 z m 146.71093,159.18164 c -2.94308,11.75687 -6.99521,22.51786 -11.9414,32.26953 14.07352,23.22955 33.21223,37.4168 62.20703,37.63086 9.94605,-0.004 18.83223,-3.17357 24.77148,-7.74804 5.94271,-4.57712 8.57032,-9.846 8.57032,-14.92578 0,-5.14765 -1.82141,-8.38647 -6.96094,-12.53321 -5.13954,-4.14674 -13.27811,-7.91015 -22.71484,-11.46093 -16.51609,-6.21454 -36.72541,-12.1842 -53.93165,-23.23243 z"
       transform="translate(13.113472,-12.233685)" />
  </g>
</svg>
